<?xml version="1.0" encoding="UTF-8" standalone="no"?>
<!DOCTYPE svg PUBLIC "-//W3C//DTD SVG 1.1//EN"
 "http://www.w3.org/Graphics/SVG/1.1/DTD/svg11.dtd">
<!-- Generated by graphviz version 2.43.0 (0)
 -->
<!-- Title: G Pages: 1 -->
<svg width="1392pt" height="553pt"
 viewBox="0.00 0.00 1392.00 553.00" xmlns="http://www.w3.org/2000/svg" xmlns:xlink="http://www.w3.org/1999/xlink">
<g id="graph0" class="graph" transform="scale(1 1) rotate(0) translate(4 549)">
<title>G</title>
<polygon fill="white" stroke="transparent" points="-4,4 -4,-549 1388,-549 1388,4 -4,4"/>
<g id="clust1" class="cluster">
<title>cluster_root</title>
<g id="a_clust1"><a xlink:title="eventq_index=0&#10;full_system=false&#10;sim_quantum=0&#10;time_sync_enable=false&#10;time_sync_period=100000000000&#10;time_sync_spin_threshold=100000000">
<path fill="#bab6ae" stroke="#000000" d="M20,-8C20,-8 1364,-8 1364,-8 1370,-8 1376,-14 1376,-20 1376,-20 1376,-525 1376,-525 1376,-531 1370,-537 1364,-537 1364,-537 20,-537 20,-537 14,-537 8,-531 8,-525 8,-525 8,-20 8,-20 8,-14 14,-8 20,-8"/>
<text text-anchor="middle" x="692" y="-521.8" font-family="Arial" font-size="14.00" fill="#000000">root </text>
<text text-anchor="middle" x="692" y="-506.8" font-family="Arial" font-size="14.00" fill="#000000">: Root</text>
</a>
</g>
</g>
<g id="clust2" class="cluster">
<title>cluster_system</title>
<g id="a_clust2"><a xlink:title="byte_order=little&#10;cache_line_size=64&#10;eventq_index=0&#10;exit_on_work_items=false&#10;init_param=0&#10;m5ops_base=0&#10;mem_mode=timing&#10;mem_ranges=0:2147483648&#10;memories=system.mem_ctrls0.dram system.mem_ctrls1.dram&#10;mmap_using_noreserve=false&#10;multi_thread=false&#10;&#10;um_work_ids=16&#10;&#13;eadfile=&#10;&#13;edirect_paths=&#10;shared_backstore=&#10;symbolfile=&#10;thermal_components=&#10;thermal_model=Null&#10;work_begin_ckpt_count=0&#10;work_begin_cpu_id_exit=&#45;1&#10;work_begin_exit_count=0&#10;work_cpus_ckpt_count=0&#10;work_end_ckpt_count=0&#10;work_end_exit_count=0&#10;work_item_id=&#45;1&#10;workload=Null">
<path fill="#e4e7eb" stroke="#000000" d="M28,-16C28,-16 1356,-16 1356,-16 1362,-16 1368,-22 1368,-28 1368,-28 1368,-479 1368,-479 1368,-485 1362,-491 1356,-491 1356,-491 28,-491 28,-491 22,-491 16,-485 16,-479 16,-479 16,-28 16,-28 16,-22 22,-16 28,-16"/>
<text text-anchor="middle" x="692" y="-475.8" font-family="Arial" font-size="14.00" fill="#000000">system </text>
<text text-anchor="middle" x="692" y="-460.8" font-family="Arial" font-size="14.00" fill="#000000">: SimpleSeSystem</text>
</a>
</g>
</g>
<g id="clust6" class="cluster">
<title>cluster_system_membus</title>
<g id="a_clust6"><a xlink:title="clk_domain=system.clk_domain&#10;eventq_index=0&#10;forward_latency=4&#10;frontend_latency=3&#10;header_latency=1&#10;max_outstanding_snoops=512&#10;max_routing_table_size=512&#10;point_of_coherency=true&#10;point_of_unification=true&#10;power_model=&#10;power_state=system.membus.power_state&#10;&#13;esponse_latency=2&#10;snoop_filter=system.membus.snoop_filter&#10;snoop_response_latency=4&#10;system=system&#10;use_default_range=false&#10;width=16">
<path fill="#6f798c" stroke="#000000" d="M36,-171C36,-171 272,-171 272,-171 278,-171 284,-177 284,-183 284,-183 284,-250 284,-250 284,-256 278,-262 272,-262 272,-262 36,-262 36,-262 30,-262 24,-256 24,-250 24,-250 24,-183 24,-183 24,-177 30,-171 36,-171"/>
<text text-anchor="middle" x="154" y="-246.8" font-family="Arial" font-size="14.00" fill="#000000">membus </text>
<text text-anchor="middle" x="154" y="-231.8" font-family="Arial" font-size="14.00" fill="#000000">: SystemXBar</text>
</a>
</g>
</g>
<g id="clust9" class="cluster">
<title>cluster_system_cpu_cluster</title>
<g id="a_clust9"><a xlink:title="eventq_index=0&#10;thermal_domain=Null">
<path fill="#bab6ae" stroke="#000000" d="M304,-24C304,-24 1348,-24 1348,-24 1354,-24 1360,-30 1360,-36 1360,-36 1360,-388 1360,-388 1360,-394 1354,-400 1348,-400 1348,-400 304,-400 304,-400 298,-400 292,-394 292,-388 292,-388 292,-36 292,-36 292,-30 298,-24 304,-24"/>
<text text-anchor="middle" x="826" y="-384.8" font-family="Arial" font-size="14.00" fill="#000000">cpu_cluster </text>
<text text-anchor="middle" x="826" y="-369.8" font-family="Arial" font-size="14.00" fill="#000000">: CpuCluster</text>
</a>
</g>
</g>
<g id="clust12" class="cluster">
<title>cluster_system_cpu_cluster_cpus</title>
<g id="a_clust12"><a xlink:title="branchPred=system.cpu_cluster.cpus.branchPred&#10;checker=Null&#10;clk_domain=system.cpu_cluster.clk_domain&#10;cpu_id=0&#10;decodeCycleInput=true&#10;decodeInputBufferSize=3&#10;decodeInputWidth=2&#10;decodeToExecuteForwardDelay=1&#10;do_checkpoint_insts=true&#10;do_statistics_insts=true&#10;dtb=system.cpu_cluster.cpus.dtb&#10;enableIdling=true&#10;eventq_index=0&#10;executeAllowEarlyMemoryIssue=true&#10;executeBranchDelay=1&#10;executeCommitLimit=2&#10;executeCycleInput=true&#10;executeFuncUnits=system.cpu_cluster.cpus.executeFuncUnits&#10;executeInputBufferSize=7&#10;executeInputWidth=2&#10;executeIssueLimit=2&#10;executeLSQMaxStoreBufferStoresPerCycle=2&#10;executeLSQRequestsQueueSize=1&#10;executeLSQStoreBufferSize=5&#10;executeLSQTransfersQueueSize=2&#10;executeMaxAccessesInMemory=2&#10;executeMemoryCommitLimit=1&#10;executeMemoryIssueLimit=1&#10;executeMemoryWidth=0&#10;executeSetTraceTimeOnCommit=true&#10;executeSetTraceTimeOnIssue=false&#10;fetch1FetchLimit=1&#10;fetch1LineSnapWidth=0&#10;fetch1LineWidth=0&#10;fetch1ToFetch2BackwardDelay=1&#10;fetch1ToFetch2ForwardDelay=1&#10;fetch2CycleInput=true&#10;fetch2InputBufferSize=2&#10;fetch2ToDecodeForwardDelay=1&#10;function_trace=false&#10;function_trace_start=0&#10;interrupts=system.cpu_cluster.cpus.interrupts&#10;isa=system.cpu_cluster.cpus.isa&#10;itb=system.cpu_cluster.cpus.itb&#10;max_insts_all_threads=0&#10;max_insts_any_thread=0&#10;&#10;umThreads=1&#10;power_gating_on_idle=false&#10;power_model=&#10;power_state=system.cpu_cluster.cpus.power_state&#10;progress_interval=0&#10;pwr_gating_latency=300&#10;simpoint_start_insts=&#10;socket_id=0&#10;switched_out=false&#10;syscallRetryLatency=10000&#10;system=system&#10;threadPolicy=RoundRobin&#10;tracer=system.cpu_cluster.cpus.tracer&#10;wait_for_remote_gdb=false&#10;workload=system.cpu_cluster.cpus.workload">
<path fill="#bbc6d9" stroke="#000000" d="M580,-32C580,-32 1340,-32 1340,-32 1346,-32 1352,-38 1352,-44 1352,-44 1352,-342 1352,-342 1352,-348 1346,-354 1340,-354 1340,-354 580,-354 580,-354 574,-354 568,-348 568,-342 568,-342 568,-44 568,-44 568,-38 574,-32 580,-32"/>
<text text-anchor="middle" x="960" y="-338.8" font-family="Arial" font-size="14.00" fill="#000000">cpus </text>
<text text-anchor="middle" x="960" y="-323.8" font-family="Arial" font-size="14.00" fill="#000000">: MinorCPU</text>
</a>
</g>
</g>
<g id="clust97" class="cluster">
<title>cluster_system_cpu_cluster_cpus_dtb</title>
<g id="a_clust97"><a xlink:title="eventq_index=0&#10;is_stage2=false&#10;size=64&#10;sys=system&#10;walker=system.cpu_cluster.cpus.dtb.walker">
<path fill="#bab6ae" stroke="#000000" d="M1216,-163C1216,-163 1332,-163 1332,-163 1338,-163 1344,-169 1344,-175 1344,-175 1344,-296 1344,-296 1344,-302 1338,-308 1332,-308 1332,-308 1216,-308 1216,-308 1210,-308 1204,-302 1204,-296 1204,-296 1204,-175 1204,-175 1204,-169 1210,-163 1216,-163"/>
<text text-anchor="middle" x="1274" y="-292.8" font-family="Arial" font-size="14.00" fill="#000000">dtb </text>
<text text-anchor="middle" x="1274" y="-277.8" font-family="Arial" font-size="14.00" fill="#000000">: ArmDTB</text>
</a>
</g>
</g>
<g id="clust102" class="cluster">
<title>cluster_system_cpu_cluster_cpus_dtb_walker</title>
<g id="a_clust102"><a xlink:title="clk_domain=system.cpu_cluster.clk_domain&#10;eventq_index=0&#10;is_stage2=false&#10;&#10;um_squash_per_cycle=2&#10;power_model=&#10;power_state=system.cpu_cluster.cpus.dtb.walker.power_state&#10;sys=system">
<path fill="#9f9c95" stroke="#000000" d="M1224,-171C1224,-171 1324,-171 1324,-171 1330,-171 1336,-177 1336,-183 1336,-183 1336,-250 1336,-250 1336,-256 1330,-262 1324,-262 1324,-262 1224,-262 1224,-262 1218,-262 1212,-256 1212,-250 1212,-250 1212,-183 1212,-183 1212,-177 1218,-171 1224,-171"/>
<text text-anchor="middle" x="1274" y="-246.8" font-family="Arial" font-size="14.00" fill="#000000">walker </text>
<text text-anchor="middle" x="1274" y="-231.8" font-family="Arial" font-size="14.00" fill="#000000">: ArmTableWalker</text>
</a>
</g>
</g>
<g id="clust104" class="cluster">
<title>cluster_system_cpu_cluster_cpus_itb</title>
<g id="a_clust104"><a xlink:title="eventq_index=0&#10;is_stage2=false&#10;size=64&#10;sys=system&#10;walker=system.cpu_cluster.cpus.itb.walker">
<path fill="#bab6ae" stroke="#000000" d="M1045,-163C1045,-163 1161,-163 1161,-163 1167,-163 1173,-169 1173,-175 1173,-175 1173,-296 1173,-296 1173,-302 1167,-308 1161,-308 1161,-308 1045,-308 1045,-308 1039,-308 1033,-302 1033,-296 1033,-296 1033,-175 1033,-175 1033,-169 1039,-163 1045,-163"/>
<text text-anchor="middle" x="1103" y="-292.8" font-family="Arial" font-size="14.00" fill="#000000">itb </text>
<text text-anchor="middle" x="1103" y="-277.8" font-family="Arial" font-size="14.00" fill="#000000">: ArmITB</text>
</a>
</g>
</g>
<g id="clust109" class="cluster">
<title>cluster_system_cpu_cluster_cpus_itb_walker</title>
<g id="a_clust109"><a xlink:title="clk_domain=system.cpu_cluster.clk_domain&#10;eventq_index=0&#10;is_stage2=false&#10;&#10;um_squash_per_cycle=2&#10;power_model=&#10;power_state=system.cpu_cluster.cpus.itb.walker.power_state&#10;sys=system">
<path fill="#9f9c95" stroke="#000000" d="M1053,-171C1053,-171 1153,-171 1153,-171 1159,-171 1165,-177 1165,-183 1165,-183 1165,-250 1165,-250 1165,-256 1159,-262 1153,-262 1153,-262 1053,-262 1053,-262 1047,-262 1041,-256 1041,-250 1041,-250 1041,-183 1041,-183 1041,-177 1047,-171 1053,-171"/>
<text text-anchor="middle" x="1103" y="-246.8" font-family="Arial" font-size="14.00" fill="#000000">walker </text>
<text text-anchor="middle" x="1103" y="-231.8" font-family="Arial" font-size="14.00" fill="#000000">: ArmTableWalker</text>
</a>
</g>
</g>
<g id="clust115" class="cluster">
<title>cluster_system_cpu_cluster_cpus_icache</title>
<g id="a_clust115"><a xlink:title="addr_ranges=0:18446744073709551615&#10;assoc=3&#10;clk_domain=system.cpu_cluster.clk_domain&#10;clusivity=mostly_incl&#10;compressor=Null&#10;data_latency=1&#10;demand_mshr_reserve=1&#10;eventq_index=0&#10;is_read_only=true&#10;max_miss_count=0&#10;mshrs=4&#10;power_model=&#10;power_state=system.cpu_cluster.cpus.icache.power_state&#10;prefetch_on_access=false&#10;prefetcher=Null&#10;&#13;eplacement_policy=system.cpu_cluster.cpus.icache.replacement_policy&#10;&#13;esponse_latency=1&#10;sequential_access=false&#10;size=49152&#10;system=system&#10;tag_latency=1&#10;tags=system.cpu_cluster.cpus.icache.tags&#10;tgts_per_mshr=8&#10;warmup_percentage=0&#10;write_allocator=Null&#10;write_buffers=8&#10;writeback_clean=true">
<path fill="#bab6ae" stroke="#000000" d="M782,-40C782,-40 944,-40 944,-40 950,-40 956,-46 956,-52 956,-52 956,-119 956,-119 956,-125 950,-131 944,-131 944,-131 782,-131 782,-131 776,-131 770,-125 770,-119 770,-119 770,-52 770,-52 770,-46 776,-40 782,-40"/>
<text text-anchor="middle" x="863" y="-115.8" font-family="Arial" font-size="14.00" fill="#000000">icache </text>
<text text-anchor="middle" x="863" y="-100.8" font-family="Arial" font-size="14.00" fill="#000000">: L1I</text>
</a>
</g>
</g>
<g id="clust121" class="cluster">
<title>cluster_system_cpu_cluster_cpus_dcache</title>
<g id="a_clust121"><a xlink:title="addr_ranges=0:18446744073709551615&#10;assoc=2&#10;clk_domain=system.cpu_cluster.clk_domain&#10;clusivity=mostly_incl&#10;compressor=Null&#10;data_latency=2&#10;demand_mshr_reserve=1&#10;eventq_index=0&#10;is_read_only=false&#10;max_miss_count=0&#10;mshrs=16&#10;power_model=&#10;power_state=system.cpu_cluster.cpus.dcache.power_state&#10;prefetch_on_access=false&#10;prefetcher=Null&#10;&#13;eplacement_policy=system.cpu_cluster.cpus.dcache.replacement_policy&#10;&#13;esponse_latency=1&#10;sequential_access=false&#10;size=32768&#10;system=system&#10;tag_latency=2&#10;tags=system.cpu_cluster.cpus.dcache.tags&#10;tgts_per_mshr=16&#10;warmup_percentage=0&#10;write_allocator=Null&#10;write_buffers=16&#10;writeback_clean=false">
<path fill="#bab6ae" stroke="#000000" d="M588,-40C588,-40 750,-40 750,-40 756,-40 762,-46 762,-52 762,-52 762,-119 762,-119 762,-125 756,-131 750,-131 750,-131 588,-131 588,-131 582,-131 576,-125 576,-119 576,-119 576,-52 576,-52 576,-46 582,-40 588,-40"/>
<text text-anchor="middle" x="669" y="-115.8" font-family="Arial" font-size="14.00" fill="#000000">dcache </text>
<text text-anchor="middle" x="669" y="-100.8" font-family="Arial" font-size="14.00" fill="#000000">: L1D</text>
</a>
</g>
</g>
<g id="clust127" class="cluster">
<title>cluster_system_cpu_cluster_cpus_itb_walker_cache</title>
<g id="a_clust127"><a xlink:title="addr_ranges=0:18446744073709551615&#10;assoc=8&#10;clk_domain=system.cpu_cluster.clk_domain&#10;clusivity=mostly_incl&#10;compressor=Null&#10;data_latency=4&#10;demand_mshr_reserve=1&#10;eventq_index=0&#10;is_read_only=true&#10;max_miss_count=0&#10;mshrs=6&#10;power_model=&#10;power_state=system.cpu_cluster.cpus.itb_walker_cache.power_state&#10;prefetch_on_access=false&#10;prefetcher=Null&#10;&#13;eplacement_policy=system.cpu_cluster.cpus.itb_walker_cache.replacement_policy&#10;&#13;esponse_latency=4&#10;sequential_access=false&#10;size=1024&#10;system=system&#10;tag_latency=4&#10;tags=system.cpu_cluster.cpus.itb_walker_cache.tags&#10;tgts_per_mshr=8&#10;warmup_percentage=0&#10;write_allocator=Null&#10;write_buffers=16&#10;writeback_clean=true">
<path fill="#bab6ae" stroke="#000000" d="M976,-40C976,-40 1138,-40 1138,-40 1144,-40 1150,-46 1150,-52 1150,-52 1150,-119 1150,-119 1150,-125 1144,-131 1138,-131 1138,-131 976,-131 976,-131 970,-131 964,-125 964,-119 964,-119 964,-52 964,-52 964,-46 970,-40 976,-40"/>
<text text-anchor="middle" x="1057" y="-115.8" font-family="Arial" font-size="14.00" fill="#000000">itb_walker_cache </text>
<text text-anchor="middle" x="1057" y="-100.8" font-family="Arial" font-size="14.00" fill="#000000">: WalkCache</text>
</a>
</g>
</g>
<g id="clust133" class="cluster">
<title>cluster_system_cpu_cluster_cpus_dtb_walker_cache</title>
<g id="a_clust133"><a xlink:title="addr_ranges=0:18446744073709551615&#10;assoc=8&#10;clk_domain=system.cpu_cluster.clk_domain&#10;clusivity=mostly_incl&#10;compressor=Null&#10;data_latency=4&#10;demand_mshr_reserve=1&#10;eventq_index=0&#10;is_read_only=true&#10;max_miss_count=0&#10;mshrs=6&#10;power_model=&#10;power_state=system.cpu_cluster.cpus.dtb_walker_cache.power_state&#10;prefetch_on_access=false&#10;prefetcher=Null&#10;&#13;eplacement_policy=system.cpu_cluster.cpus.dtb_walker_cache.replacement_policy&#10;&#13;esponse_latency=4&#10;sequential_access=false&#10;size=1024&#10;system=system&#10;tag_latency=4&#10;tags=system.cpu_cluster.cpus.dtb_walker_cache.tags&#10;tgts_per_mshr=8&#10;warmup_percentage=0&#10;write_allocator=Null&#10;write_buffers=16&#10;writeback_clean=true">
<path fill="#bab6ae" stroke="#000000" d="M1170,-40C1170,-40 1332,-40 1332,-40 1338,-40 1344,-46 1344,-52 1344,-52 1344,-119 1344,-119 1344,-125 1338,-131 1332,-131 1332,-131 1170,-131 1170,-131 1164,-131 1158,-125 1158,-119 1158,-119 1158,-52 1158,-52 1158,-46 1164,-40 1170,-40"/>
<text text-anchor="middle" x="1251" y="-115.8" font-family="Arial" font-size="14.00" fill="#000000">dtb_walker_cache </text>
<text text-anchor="middle" x="1251" y="-100.8" font-family="Arial" font-size="14.00" fill="#000000">: WalkCache</text>
</a>
</g>
</g>
<g id="clust140" class="cluster">
<title>cluster_system_cpu_cluster_toL2Bus</title>
<g id="a_clust140"><a xlink:title="clk_domain=system.cpu_cluster.clk_domain&#10;eventq_index=0&#10;forward_latency=0&#10;frontend_latency=1&#10;header_latency=1&#10;max_outstanding_snoops=512&#10;max_routing_table_size=512&#10;point_of_coherency=false&#10;point_of_unification=true&#10;power_model=&#10;power_state=system.cpu_cluster.toL2Bus.power_state&#10;&#13;esponse_latency=1&#10;snoop_filter=system.cpu_cluster.toL2Bus.snoop_filter&#10;snoop_response_latency=1&#10;system=system&#10;use_default_range=false&#10;width=64">
<path fill="#6f798c" stroke="#000000" d="M312,-171C312,-171 548,-171 548,-171 554,-171 560,-177 560,-183 560,-183 560,-250 560,-250 560,-256 554,-262 548,-262 548,-262 312,-262 312,-262 306,-262 300,-256 300,-250 300,-250 300,-183 300,-183 300,-177 306,-171 312,-171"/>
<text text-anchor="middle" x="430" y="-246.8" font-family="Arial" font-size="14.00" fill="#000000">toL2Bus </text>
<text text-anchor="middle" x="430" y="-231.8" font-family="Arial" font-size="14.00" fill="#000000">: L2XBar</text>
</a>
</g>
</g>
<g id="clust143" class="cluster">
<title>cluster_system_cpu_cluster_l2</title>
<g id="a_clust143"><a xlink:title="addr_ranges=0:18446744073709551615&#10;assoc=16&#10;clk_domain=system.cpu_cluster.clk_domain&#10;clusivity=mostly_excl&#10;compressor=Null&#10;data_latency=12&#10;demand_mshr_reserve=1&#10;eventq_index=0&#10;is_read_only=false&#10;max_miss_count=0&#10;mshrs=32&#10;power_model=&#10;power_state=system.cpu_cluster.l2.power_state&#10;prefetch_on_access=false&#10;prefetcher=Null&#10;&#13;eplacement_policy=system.cpu_cluster.l2.replacement_policy&#10;&#13;esponse_latency=5&#10;sequential_access=false&#10;size=1048576&#10;system=system&#10;tag_latency=12&#10;tags=system.cpu_cluster.l2.tags&#10;tgts_per_mshr=8&#10;warmup_percentage=0&#10;write_allocator=Null&#10;write_buffers=8&#10;writeback_clean=false">
<path fill="#9f9c95" stroke="#000000" d="M312,-40C312,-40 474,-40 474,-40 480,-40 486,-46 486,-52 486,-52 486,-119 486,-119 486,-125 480,-131 474,-131 474,-131 312,-131 312,-131 306,-131 300,-125 300,-119 300,-119 300,-52 300,-52 300,-46 306,-40 312,-40"/>
<text text-anchor="middle" x="393" y="-115.8" font-family="Arial" font-size="14.00" fill="#000000">l2 </text>
<text text-anchor="middle" x="393" y="-100.8" font-family="Arial" font-size="14.00" fill="#000000">: L2</text>
</a>
</g>
</g>
<g id="clust149" class="cluster">
<title>cluster_system_mem_ctrls0</title>
<g id="a_clust149"><a xlink:title="clk_domain=system.clk_domain&#10;command_window=10000&#10;dram=system.mem_ctrls0.dram&#10;eventq_index=0&#10;mem_sched_policy=frfcfs&#10;min_writes_per_switch=16&#10;&#10;vm=Null&#10;power_model=&#10;power_state=system.mem_ctrls0.power_state&#10;qos_policy=Null&#10;qos_priorities=1&#10;qos_priority_escalation=false&#10;qos_q_policy=fifo&#10;qos_requestors= &#160;&#160;&#160;&#160;&#160;&#160;&#160;&#160;&#160;&#160;&#160;&#160;&#160;&#160;&#10;qos_syncro_scheduler=false&#10;qos_turnaround_policy=Null&#10;static_backend_latency=10000&#10;static_frontend_latency=10000&#10;system=system&#10;write_high_thresh_perc=85&#10;write_low_thresh_perc=50">
<path fill="#bab6ae" stroke="#000000" d="M41,-40C41,-40 109,-40 109,-40 115,-40 121,-46 121,-52 121,-52 121,-119 121,-119 121,-125 115,-131 109,-131 109,-131 41,-131 41,-131 35,-131 29,-125 29,-119 29,-119 29,-52 29,-52 29,-46 35,-40 41,-40"/>
<text text-anchor="middle" x="75" y="-115.8" font-family="Arial" font-size="14.00" fill="#000000">mem_ctrls0 </text>
<text text-anchor="middle" x="75" y="-100.8" font-family="Arial" font-size="14.00" fill="#000000">: MemCtrl</text>
</a>
</g>
</g>
<g id="clust153" class="cluster">
<title>cluster_system_mem_ctrls1</title>
<g id="a_clust153"><a xlink:title="clk_domain=system.clk_domain&#10;command_window=10000&#10;dram=system.mem_ctrls1.dram&#10;eventq_index=0&#10;mem_sched_policy=frfcfs&#10;min_writes_per_switch=16&#10;&#10;vm=Null&#10;power_model=&#10;power_state=system.mem_ctrls1.power_state&#10;qos_policy=Null&#10;qos_priorities=1&#10;qos_priority_escalation=false&#10;qos_q_policy=fifo&#10;qos_requestors= &#160;&#160;&#160;&#160;&#160;&#160;&#160;&#160;&#160;&#160;&#160;&#160;&#160;&#160;&#10;qos_syncro_scheduler=false&#10;qos_turnaround_policy=Null&#10;static_backend_latency=10000&#10;static_frontend_latency=10000&#10;system=system&#10;write_high_thresh_perc=85&#10;write_low_thresh_perc=50">
<path fill="#bab6ae" stroke="#000000" d="M141,-40C141,-40 209,-40 209,-40 215,-40 221,-46 221,-52 221,-52 221,-119 221,-119 221,-125 215,-131 209,-131 209,-131 141,-131 141,-131 135,-131 129,-125 129,-119 129,-119 129,-52 129,-52 129,-46 135,-40 141,-40"/>
<text text-anchor="middle" x="175" y="-115.8" font-family="Arial" font-size="14.00" fill="#000000">mem_ctrls1 </text>
<text text-anchor="middle" x="175" y="-100.8" font-family="Arial" font-size="14.00" fill="#000000">: MemCtrl</text>
</a>
</g>
</g>
<!-- system_system_port -->
<g id="node1" class="node">
<title>system_system_port</title>
<path fill="#b6b8bc" stroke="#000000" d="M188.5,-408.5C188.5,-408.5 255.5,-408.5 255.5,-408.5 261.5,-408.5 267.5,-414.5 267.5,-420.5 267.5,-420.5 267.5,-432.5 267.5,-432.5 267.5,-438.5 261.5,-444.5 255.5,-444.5 255.5,-444.5 188.5,-444.5 188.5,-444.5 182.5,-444.5 176.5,-438.5 176.5,-432.5 176.5,-432.5 176.5,-420.5 176.5,-420.5 176.5,-414.5 182.5,-408.5 188.5,-408.5"/>
<text text-anchor="middle" x="222" y="-422.8" font-family="Arial" font-size="14.00" fill="#000000">system_port</text>
</g>
<!-- system_membus_cpu_side_ports -->
<g id="node2" class="node">
<title>system_membus_cpu_side_ports</title>
<path fill="#586070" stroke="#000000" d="M180,-179.5C180,-179.5 264,-179.5 264,-179.5 270,-179.5 276,-185.5 276,-191.5 276,-191.5 276,-203.5 276,-203.5 276,-209.5 270,-215.5 264,-215.5 264,-215.5 180,-215.5 180,-215.5 174,-215.5 168,-209.5 168,-203.5 168,-203.5 168,-191.5 168,-191.5 168,-185.5 174,-179.5 180,-179.5"/>
<text text-anchor="middle" x="222" y="-193.8" font-family="Arial" font-size="14.00" fill="#000000">cpu_side_ports</text>
</g>
<!-- system_system_port&#45;&gt;system_membus_cpu_side_ports -->
<g id="edge1" class="edge">
<title>system_system_port&#45;&gt;system_membus_cpu_side_ports</title>
<path fill="none" stroke="black" d="M222,-408.44C222,-369.41 222,-273.35 222,-225.91"/>
<polygon fill="black" stroke="black" points="225.5,-225.76 222,-215.76 218.5,-225.76 225.5,-225.76"/>
</g>
<!-- system_cpu_cluster_l2_mem_side -->
<g id="node19" class="node">
<title>system_cpu_cluster_l2_mem_side</title>
<path fill="#7f7c77" stroke="#000000" d="M320,-48.5C320,-48.5 376,-48.5 376,-48.5 382,-48.5 388,-54.5 388,-60.5 388,-60.5 388,-72.5 388,-72.5 388,-78.5 382,-84.5 376,-84.5 376,-84.5 320,-84.5 320,-84.5 314,-84.5 308,-78.5 308,-72.5 308,-72.5 308,-60.5 308,-60.5 308,-54.5 314,-48.5 320,-48.5"/>
<text text-anchor="middle" x="348" y="-62.8" font-family="Arial" font-size="14.00" fill="#000000">mem_side</text>
</g>
<!-- system_membus_cpu_side_ports&#45;&gt;system_cpu_cluster_l2_mem_side -->
<g id="edge2" class="edge">
<title>system_membus_cpu_side_ports&#45;&gt;system_cpu_cluster_l2_mem_side</title>
<path fill="none" stroke="black" d="M246.01,-171.92C270.95,-146.39 309.32,-107.1 331.2,-84.7"/>
<polygon fill="black" stroke="black" points="243.22,-169.77 238.73,-179.37 248.22,-174.66 243.22,-169.77"/>
</g>
<!-- system_membus_mem_side_ports -->
<g id="node3" class="node">
<title>system_membus_mem_side_ports</title>
<path fill="#586070" stroke="#000000" d="M44,-179.5C44,-179.5 138,-179.5 138,-179.5 144,-179.5 150,-185.5 150,-191.5 150,-191.5 150,-203.5 150,-203.5 150,-209.5 144,-215.5 138,-215.5 138,-215.5 44,-215.5 44,-215.5 38,-215.5 32,-209.5 32,-203.5 32,-203.5 32,-191.5 32,-191.5 32,-185.5 38,-179.5 44,-179.5"/>
<text text-anchor="middle" x="91" y="-193.8" font-family="Arial" font-size="14.00" fill="#000000">mem_side_ports</text>
</g>
<!-- system_mem_ctrls0_port -->
<g id="node20" class="node">
<title>system_mem_ctrls0_port</title>
<path fill="#94918b" stroke="#000000" d="M71,-48.5C71,-48.5 101,-48.5 101,-48.5 107,-48.5 113,-54.5 113,-60.5 113,-60.5 113,-72.5 113,-72.5 113,-78.5 107,-84.5 101,-84.5 101,-84.5 71,-84.5 71,-84.5 65,-84.5 59,-78.5 59,-72.5 59,-72.5 59,-60.5 59,-60.5 59,-54.5 65,-48.5 71,-48.5"/>
<text text-anchor="middle" x="86" y="-62.8" font-family="Arial" font-size="14.00" fill="#000000">port</text>
</g>
<!-- system_membus_mem_side_ports&#45;&gt;system_mem_ctrls0_port -->
<g id="edge3" class="edge">
<title>system_membus_mem_side_ports&#45;&gt;system_mem_ctrls0_port</title>
<path fill="none" stroke="black" d="M90.34,-179.37C89.5,-157.78 88.05,-120.41 87.06,-94.85"/>
<polygon fill="black" stroke="black" points="90.55,-94.56 86.67,-84.7 83.56,-94.83 90.55,-94.56"/>
</g>
<!-- system_mem_ctrls1_port -->
<g id="node21" class="node">
<title>system_mem_ctrls1_port</title>
<path fill="#94918b" stroke="#000000" d="M149,-48.5C149,-48.5 179,-48.5 179,-48.5 185,-48.5 191,-54.5 191,-60.5 191,-60.5 191,-72.5 191,-72.5 191,-78.5 185,-84.5 179,-84.5 179,-84.5 149,-84.5 149,-84.5 143,-84.5 137,-78.5 137,-72.5 137,-72.5 137,-60.5 137,-60.5 137,-54.5 143,-48.5 149,-48.5"/>
<text text-anchor="middle" x="164" y="-62.8" font-family="Arial" font-size="14.00" fill="#000000">port</text>
</g>
<!-- system_membus_mem_side_ports&#45;&gt;system_mem_ctrls1_port -->
<g id="edge4" class="edge">
<title>system_membus_mem_side_ports&#45;&gt;system_mem_ctrls1_port</title>
<path fill="none" stroke="black" d="M100.69,-179.37C113.13,-157.4 134.82,-119.07 149.29,-93.49"/>
<polygon fill="black" stroke="black" points="152.39,-95.13 154.27,-84.7 146.29,-91.68 152.39,-95.13"/>
</g>
<!-- system_cpu_cluster_cpus_icache_port -->
<g id="node4" class="node">
<title>system_cpu_cluster_cpus_icache_port</title>
<path fill="#959ead" stroke="#000000" d="M881,-179.5C881,-179.5 943,-179.5 943,-179.5 949,-179.5 955,-185.5 955,-191.5 955,-191.5 955,-203.5 955,-203.5 955,-209.5 949,-215.5 943,-215.5 943,-215.5 881,-215.5 881,-215.5 875,-215.5 869,-209.5 869,-203.5 869,-203.5 869,-191.5 869,-191.5 869,-185.5 875,-179.5 881,-179.5"/>
<text text-anchor="middle" x="912" y="-193.8" font-family="Arial" font-size="14.00" fill="#000000">icache_port</text>
</g>
<!-- system_cpu_cluster_cpus_icache_cpu_side -->
<g id="node8" class="node">
<title>system_cpu_cluster_cpus_icache_cpu_side</title>
<path fill="#94918b" stroke="#000000" d="M888.5,-48.5C888.5,-48.5 935.5,-48.5 935.5,-48.5 941.5,-48.5 947.5,-54.5 947.5,-60.5 947.5,-60.5 947.5,-72.5 947.5,-72.5 947.5,-78.5 941.5,-84.5 935.5,-84.5 935.5,-84.5 888.5,-84.5 888.5,-84.5 882.5,-84.5 876.5,-78.5 876.5,-72.5 876.5,-72.5 876.5,-60.5 876.5,-60.5 876.5,-54.5 882.5,-48.5 888.5,-48.5"/>
<text text-anchor="middle" x="912" y="-62.8" font-family="Arial" font-size="14.00" fill="#000000">cpu_side</text>
</g>
<!-- system_cpu_cluster_cpus_icache_port&#45;&gt;system_cpu_cluster_cpus_icache_cpu_side -->
<g id="edge5" class="edge">
<title>system_cpu_cluster_cpus_icache_port&#45;&gt;system_cpu_cluster_cpus_icache_cpu_side</title>
<path fill="none" stroke="black" d="M912,-179.37C912,-157.78 912,-120.41 912,-94.85"/>
<polygon fill="black" stroke="black" points="915.5,-94.7 912,-84.7 908.5,-94.7 915.5,-94.7"/>
</g>
<!-- system_cpu_cluster_cpus_dcache_port -->
<g id="node5" class="node">
<title>system_cpu_cluster_cpus_dcache_port</title>
<path fill="#959ead" stroke="#000000" d="M684.5,-179.5C684.5,-179.5 751.5,-179.5 751.5,-179.5 757.5,-179.5 763.5,-185.5 763.5,-191.5 763.5,-191.5 763.5,-203.5 763.5,-203.5 763.5,-209.5 757.5,-215.5 751.5,-215.5 751.5,-215.5 684.5,-215.5 684.5,-215.5 678.5,-215.5 672.5,-209.5 672.5,-203.5 672.5,-203.5 672.5,-191.5 672.5,-191.5 672.5,-185.5 678.5,-179.5 684.5,-179.5"/>
<text text-anchor="middle" x="718" y="-193.8" font-family="Arial" font-size="14.00" fill="#000000">dcache_port</text>
</g>
<!-- system_cpu_cluster_cpus_dcache_cpu_side -->
<g id="node10" class="node">
<title>system_cpu_cluster_cpus_dcache_cpu_side</title>
<path fill="#94918b" stroke="#000000" d="M694.5,-48.5C694.5,-48.5 741.5,-48.5 741.5,-48.5 747.5,-48.5 753.5,-54.5 753.5,-60.5 753.5,-60.5 753.5,-72.5 753.5,-72.5 753.5,-78.5 747.5,-84.5 741.5,-84.5 741.5,-84.5 694.5,-84.5 694.5,-84.5 688.5,-84.5 682.5,-78.5 682.5,-72.5 682.5,-72.5 682.5,-60.5 682.5,-60.5 682.5,-54.5 688.5,-48.5 694.5,-48.5"/>
<text text-anchor="middle" x="718" y="-62.8" font-family="Arial" font-size="14.00" fill="#000000">cpu_side</text>
</g>
<!-- system_cpu_cluster_cpus_dcache_port&#45;&gt;system_cpu_cluster_cpus_dcache_cpu_side -->
<g id="edge6" class="edge">
<title>system_cpu_cluster_cpus_dcache_port&#45;&gt;system_cpu_cluster_cpus_dcache_cpu_side</title>
<path fill="none" stroke="black" d="M718,-179.37C718,-157.78 718,-120.41 718,-94.85"/>
<polygon fill="black" stroke="black" points="721.5,-94.7 718,-84.7 714.5,-94.7 721.5,-94.7"/>
</g>
<!-- system_cpu_cluster_cpus_dtb_walker_port -->
<g id="node6" class="node">
<title>system_cpu_cluster_cpus_dtb_walker_port</title>
<path fill="#7f7c77" stroke="#000000" d="M1285,-179.5C1285,-179.5 1315,-179.5 1315,-179.5 1321,-179.5 1327,-185.5 1327,-191.5 1327,-191.5 1327,-203.5 1327,-203.5 1327,-209.5 1321,-215.5 1315,-215.5 1315,-215.5 1285,-215.5 1285,-215.5 1279,-215.5 1273,-209.5 1273,-203.5 1273,-203.5 1273,-191.5 1273,-191.5 1273,-185.5 1279,-179.5 1285,-179.5"/>
<text text-anchor="middle" x="1300" y="-193.8" font-family="Arial" font-size="14.00" fill="#000000">port</text>
</g>
<!-- system_cpu_cluster_cpus_dtb_walker_cache_cpu_side -->
<g id="node14" class="node">
<title>system_cpu_cluster_cpus_dtb_walker_cache_cpu_side</title>
<path fill="#94918b" stroke="#000000" d="M1276.5,-48.5C1276.5,-48.5 1323.5,-48.5 1323.5,-48.5 1329.5,-48.5 1335.5,-54.5 1335.5,-60.5 1335.5,-60.5 1335.5,-72.5 1335.5,-72.5 1335.5,-78.5 1329.5,-84.5 1323.5,-84.5 1323.5,-84.5 1276.5,-84.5 1276.5,-84.5 1270.5,-84.5 1264.5,-78.5 1264.5,-72.5 1264.5,-72.5 1264.5,-60.5 1264.5,-60.5 1264.5,-54.5 1270.5,-48.5 1276.5,-48.5"/>
<text text-anchor="middle" x="1300" y="-62.8" font-family="Arial" font-size="14.00" fill="#000000">cpu_side</text>
</g>
<!-- system_cpu_cluster_cpus_dtb_walker_port&#45;&gt;system_cpu_cluster_cpus_dtb_walker_cache_cpu_side -->
<g id="edge7" class="edge">
<title>system_cpu_cluster_cpus_dtb_walker_port&#45;&gt;system_cpu_cluster_cpus_dtb_walker_cache_cpu_side</title>
<path fill="none" stroke="black" d="M1300,-179.37C1300,-157.78 1300,-120.41 1300,-94.85"/>
<polygon fill="black" stroke="black" points="1303.5,-94.7 1300,-84.7 1296.5,-94.7 1303.5,-94.7"/>
</g>
<!-- system_cpu_cluster_cpus_itb_walker_port -->
<g id="node7" class="node">
<title>system_cpu_cluster_cpus_itb_walker_port</title>
<path fill="#7f7c77" stroke="#000000" d="M1091,-179.5C1091,-179.5 1121,-179.5 1121,-179.5 1127,-179.5 1133,-185.5 1133,-191.5 1133,-191.5 1133,-203.5 1133,-203.5 1133,-209.5 1127,-215.5 1121,-215.5 1121,-215.5 1091,-215.5 1091,-215.5 1085,-215.5 1079,-209.5 1079,-203.5 1079,-203.5 1079,-191.5 1079,-191.5 1079,-185.5 1085,-179.5 1091,-179.5"/>
<text text-anchor="middle" x="1106" y="-193.8" font-family="Arial" font-size="14.00" fill="#000000">port</text>
</g>
<!-- system_cpu_cluster_cpus_itb_walker_cache_cpu_side -->
<g id="node12" class="node">
<title>system_cpu_cluster_cpus_itb_walker_cache_cpu_side</title>
<path fill="#94918b" stroke="#000000" d="M1082.5,-48.5C1082.5,-48.5 1129.5,-48.5 1129.5,-48.5 1135.5,-48.5 1141.5,-54.5 1141.5,-60.5 1141.5,-60.5 1141.5,-72.5 1141.5,-72.5 1141.5,-78.5 1135.5,-84.5 1129.5,-84.5 1129.5,-84.5 1082.5,-84.5 1082.5,-84.5 1076.5,-84.5 1070.5,-78.5 1070.5,-72.5 1070.5,-72.5 1070.5,-60.5 1070.5,-60.5 1070.5,-54.5 1076.5,-48.5 1082.5,-48.5"/>
<text text-anchor="middle" x="1106" y="-62.8" font-family="Arial" font-size="14.00" fill="#000000">cpu_side</text>
</g>
<!-- system_cpu_cluster_cpus_itb_walker_port&#45;&gt;system_cpu_cluster_cpus_itb_walker_cache_cpu_side -->
<g id="edge8" class="edge">
<title>system_cpu_cluster_cpus_itb_walker_port&#45;&gt;system_cpu_cluster_cpus_itb_walker_cache_cpu_side</title>
<path fill="none" stroke="black" d="M1106,-179.37C1106,-157.78 1106,-120.41 1106,-94.85"/>
<polygon fill="black" stroke="black" points="1109.5,-94.7 1106,-84.7 1102.5,-94.7 1109.5,-94.7"/>
</g>
<!-- system_cpu_cluster_cpus_icache_mem_side -->
<g id="node9" class="node">
<title>system_cpu_cluster_cpus_icache_mem_side</title>
<path fill="#94918b" stroke="#000000" d="M790,-48.5C790,-48.5 846,-48.5 846,-48.5 852,-48.5 858,-54.5 858,-60.5 858,-60.5 858,-72.5 858,-72.5 858,-78.5 852,-84.5 846,-84.5 846,-84.5 790,-84.5 790,-84.5 784,-84.5 778,-78.5 778,-72.5 778,-72.5 778,-60.5 778,-60.5 778,-54.5 784,-48.5 790,-48.5"/>
<text text-anchor="middle" x="818" y="-62.8" font-family="Arial" font-size="14.00" fill="#000000">mem_side</text>
</g>
<!-- system_cpu_cluster_cpus_dcache_mem_side -->
<g id="node11" class="node">
<title>system_cpu_cluster_cpus_dcache_mem_side</title>
<path fill="#94918b" stroke="#000000" d="M596,-48.5C596,-48.5 652,-48.5 652,-48.5 658,-48.5 664,-54.5 664,-60.5 664,-60.5 664,-72.5 664,-72.5 664,-78.5 658,-84.5 652,-84.5 652,-84.5 596,-84.5 596,-84.5 590,-84.5 584,-78.5 584,-72.5 584,-72.5 584,-60.5 584,-60.5 584,-54.5 590,-48.5 596,-48.5"/>
<text text-anchor="middle" x="624" y="-62.8" font-family="Arial" font-size="14.00" fill="#000000">mem_side</text>
</g>
<!-- system_cpu_cluster_cpus_itb_walker_cache_mem_side -->
<g id="node13" class="node">
<title>system_cpu_cluster_cpus_itb_walker_cache_mem_side</title>
<path fill="#94918b" stroke="#000000" d="M984,-48.5C984,-48.5 1040,-48.5 1040,-48.5 1046,-48.5 1052,-54.5 1052,-60.5 1052,-60.5 1052,-72.5 1052,-72.5 1052,-78.5 1046,-84.5 1040,-84.5 1040,-84.5 984,-84.5 984,-84.5 978,-84.5 972,-78.5 972,-72.5 972,-72.5 972,-60.5 972,-60.5 972,-54.5 978,-48.5 984,-48.5"/>
<text text-anchor="middle" x="1012" y="-62.8" font-family="Arial" font-size="14.00" fill="#000000">mem_side</text>
</g>
<!-- system_cpu_cluster_cpus_dtb_walker_cache_mem_side -->
<g id="node15" class="node">
<title>system_cpu_cluster_cpus_dtb_walker_cache_mem_side</title>
<path fill="#94918b" stroke="#000000" d="M1178,-48.5C1178,-48.5 1234,-48.5 1234,-48.5 1240,-48.5 1246,-54.5 1246,-60.5 1246,-60.5 1246,-72.5 1246,-72.5 1246,-78.5 1240,-84.5 1234,-84.5 1234,-84.5 1178,-84.5 1178,-84.5 1172,-84.5 1166,-78.5 1166,-72.5 1166,-72.5 1166,-60.5 1166,-60.5 1166,-54.5 1172,-48.5 1178,-48.5"/>
<text text-anchor="middle" x="1206" y="-62.8" font-family="Arial" font-size="14.00" fill="#000000">mem_side</text>
</g>
<!-- system_cpu_cluster_toL2Bus_cpu_side_ports -->
<g id="node16" class="node">
<title>system_cpu_cluster_toL2Bus_cpu_side_ports</title>
<path fill="#586070" stroke="#000000" d="M456,-179.5C456,-179.5 540,-179.5 540,-179.5 546,-179.5 552,-185.5 552,-191.5 552,-191.5 552,-203.5 552,-203.5 552,-209.5 546,-215.5 540,-215.5 540,-215.5 456,-215.5 456,-215.5 450,-215.5 444,-209.5 444,-203.5 444,-203.5 444,-191.5 444,-191.5 444,-185.5 450,-179.5 456,-179.5"/>
<text text-anchor="middle" x="498" y="-193.8" font-family="Arial" font-size="14.00" fill="#000000">cpu_side_ports</text>
</g>
<!-- system_cpu_cluster_toL2Bus_cpu_side_ports&#45;&gt;system_cpu_cluster_cpus_icache_mem_side -->
<g id="edge9" class="edge">
<title>system_cpu_cluster_toL2Bus_cpu_side_ports&#45;&gt;system_cpu_cluster_cpus_icache_mem_side</title>
<path fill="none" stroke="black" d="M535.81,-174.78C544.82,-170.32 554.56,-166.06 564,-163 650.47,-134.98 687.16,-176.23 766,-131 785.03,-120.08 799.98,-99.32 808.88,-84.51"/>
<polygon fill="black" stroke="black" points="534.02,-171.76 526.73,-179.45 537.22,-177.99 534.02,-171.76"/>
</g>
<!-- system_cpu_cluster_toL2Bus_cpu_side_ports&#45;&gt;system_cpu_cluster_cpus_dcache_mem_side -->
<g id="edge10" class="edge">
<title>system_cpu_cluster_toL2Bus_cpu_side_ports&#45;&gt;system_cpu_cluster_cpus_dcache_mem_side</title>
<path fill="none" stroke="black" d="M522.01,-171.92C546.95,-146.39 585.32,-107.1 607.2,-84.7"/>
<polygon fill="black" stroke="black" points="519.22,-169.77 514.73,-179.37 524.22,-174.66 519.22,-169.77"/>
</g>
<!-- system_cpu_cluster_toL2Bus_cpu_side_ports&#45;&gt;system_cpu_cluster_cpus_itb_walker_cache_mem_side -->
<g id="edge11" class="edge">
<title>system_cpu_cluster_toL2Bus_cpu_side_ports&#45;&gt;system_cpu_cluster_cpus_itb_walker_cache_mem_side</title>
<path fill="none" stroke="black" d="M534.58,-174.77C543.89,-170.14 554.08,-165.8 564,-163 648.97,-139.01 881.8,-171.98 960,-131 979.56,-120.75 994.5,-99.63 1003.24,-84.57"/>
<polygon fill="black" stroke="black" points="532.84,-171.73 525.6,-179.46 536.08,-177.93 532.84,-171.73"/>
</g>
<!-- system_cpu_cluster_toL2Bus_cpu_side_ports&#45;&gt;system_cpu_cluster_cpus_dtb_walker_cache_mem_side -->
<g id="edge12" class="edge">
<title>system_cpu_cluster_toL2Bus_cpu_side_ports&#45;&gt;system_cpu_cluster_cpus_dtb_walker_cache_mem_side</title>
<path fill="none" stroke="black" d="M534.27,-174.72C543.65,-170.04 553.95,-165.7 564,-163 690.83,-129 1036.9,-190.4 1154,-131 1173.7,-121.01 1188.61,-99.84 1197.3,-84.69"/>
<polygon fill="black" stroke="black" points="532.46,-171.71 525.23,-179.46 535.71,-177.91 532.46,-171.71"/>
</g>
<!-- system_cpu_cluster_toL2Bus_mem_side_ports -->
<g id="node17" class="node">
<title>system_cpu_cluster_toL2Bus_mem_side_ports</title>
<path fill="#586070" stroke="#000000" d="M320,-179.5C320,-179.5 414,-179.5 414,-179.5 420,-179.5 426,-185.5 426,-191.5 426,-191.5 426,-203.5 426,-203.5 426,-209.5 420,-215.5 414,-215.5 414,-215.5 320,-215.5 320,-215.5 314,-215.5 308,-209.5 308,-203.5 308,-203.5 308,-191.5 308,-191.5 308,-185.5 314,-179.5 320,-179.5"/>
<text text-anchor="middle" x="367" y="-193.8" font-family="Arial" font-size="14.00" fill="#000000">mem_side_ports</text>
</g>
<!-- system_cpu_cluster_l2_cpu_side -->
<g id="node18" class="node">
<title>system_cpu_cluster_l2_cpu_side</title>
<path fill="#7f7c77" stroke="#000000" d="M418.5,-48.5C418.5,-48.5 465.5,-48.5 465.5,-48.5 471.5,-48.5 477.5,-54.5 477.5,-60.5 477.5,-60.5 477.5,-72.5 477.5,-72.5 477.5,-78.5 471.5,-84.5 465.5,-84.5 465.5,-84.5 418.5,-84.5 418.5,-84.5 412.5,-84.5 406.5,-78.5 406.5,-72.5 406.5,-72.5 406.5,-60.5 406.5,-60.5 406.5,-54.5 412.5,-48.5 418.5,-48.5"/>
<text text-anchor="middle" x="442" y="-62.8" font-family="Arial" font-size="14.00" fill="#000000">cpu_side</text>
</g>
<!-- system_cpu_cluster_toL2Bus_mem_side_ports&#45;&gt;system_cpu_cluster_l2_cpu_side -->
<g id="edge13" class="edge">
<title>system_cpu_cluster_toL2Bus_mem_side_ports&#45;&gt;system_cpu_cluster_l2_cpu_side</title>
<path fill="none" stroke="black" d="M376.96,-179.37C389.74,-157.4 412.02,-119.07 426.89,-93.49"/>
<polygon fill="black" stroke="black" points="430,-95.11 432,-84.7 423.95,-91.59 430,-95.11"/>
</g>
</g>
</svg>
