<?xml version="1.0" encoding="UTF-8" standalone="no"?>
<!DOCTYPE svg PUBLIC "-//W3C//DTD SVG 1.1//EN"
 "http://www.w3.org/Graphics/SVG/1.1/DTD/svg11.dtd">
<!-- Generated by graphviz version 2.43.0 (0)
 -->
<!-- Title: G Pages: 1 -->
<svg width="678pt" height="638pt"
 viewBox="0.00 0.00 678.00 638.00" xmlns="http://www.w3.org/2000/svg" xmlns:xlink="http://www.w3.org/1999/xlink">
<g id="graph0" class="graph" transform="scale(1 1) rotate(0) translate(4 634)">
<title>G</title>
<polygon fill="white" stroke="transparent" points="-4,4 -4,-634 674,-634 674,4 -4,4"/>
<g id="clust1" class="cluster">
<title>cluster_root</title>
<g id="a_clust1"><a xlink:title="eventq_index=0&#10;full_system=false&#10;sim_quantum=0&#10;time_sync_enable=false&#10;time_sync_period=100000000000&#10;time_sync_spin_threshold=100000000">
<path fill="#bab6ae" stroke="#000000" d="M20,-8C20,-8 650,-8 650,-8 656,-8 662,-14 662,-20 662,-20 662,-610 662,-610 662,-616 656,-622 650,-622 650,-622 20,-622 20,-622 14,-622 8,-616 8,-610 8,-610 8,-20 8,-20 8,-14 14,-8 20,-8"/>
<text text-anchor="middle" x="335" y="-606.8" font-family="Arial" font-size="14.00" fill="#000000">root </text>
<text text-anchor="middle" x="335" y="-591.8" font-family="Arial" font-size="14.00" fill="#000000">: Root</text>
</a>
</g>
</g>
<g id="clust2" class="cluster">
<title>cluster_system</title>
<g id="a_clust2"><a xlink:title="byte_order=little&#10;cache_line_size=64&#10;eventq_index=0&#10;exit_on_work_items=false&#10;init_param=0&#10;m5ops_base=0&#10;mem_mode=timing&#10;mem_ranges=0:536870912&#10;memories=system.mem_ctrls.dram&#10;mmap_using_noreserve=false&#10;multi_thread=false&#10;&#10;um_work_ids=16&#10;&#13;eadfile=&#10;&#13;edirect_paths=system.redirect_paths0 system.redirect_paths1 system.redirect_paths2&#10;shared_backstore=&#10;symbolfile=&#10;thermal_components=&#10;thermal_model=Null&#10;work_begin_ckpt_count=0&#10;work_begin_cpu_id_exit=&#45;1&#10;work_begin_exit_count=0&#10;work_cpus_ckpt_count=0&#10;work_end_ckpt_count=0&#10;work_end_exit_count=0&#10;work_item_id=&#45;1&#10;workload=Null">
<path fill="#e4e7eb" stroke="#000000" d="M28,-16C28,-16 642,-16 642,-16 648,-16 654,-22 654,-28 654,-28 654,-564 654,-564 654,-570 648,-576 642,-576 642,-576 28,-576 28,-576 22,-576 16,-570 16,-564 16,-564 16,-28 16,-28 16,-22 22,-16 28,-16"/>
<text text-anchor="middle" x="335" y="-560.8" font-family="Arial" font-size="14.00" fill="#000000">system </text>
<text text-anchor="middle" x="335" y="-545.8" font-family="Arial" font-size="14.00" fill="#000000">: System</text>
</a>
</g>
</g>
<g id="clust4" class="cluster">
<title>cluster_system_cpu</title>
<g id="a_clust4"><a xlink:title="branchPred=Null&#10;checker=Null&#10;clk_domain=system.cpu_clk_domain&#10;cpu_id=0&#10;do_checkpoint_insts=true&#10;do_statistics_insts=true&#10;dtb=system.cpu.dtb&#10;eventq_index=0&#10;function_trace=false&#10;function_trace_start=0&#10;interrupts=system.cpu.interrupts&#10;isa=system.cpu.isa&#10;itb=system.cpu.itb&#10;max_insts_all_threads=0&#10;max_insts_any_thread=0&#10;&#10;umThreads=1&#10;power_gating_on_idle=false&#10;power_model=&#10;power_state=system.cpu.power_state&#10;progress_interval=0&#10;pwr_gating_latency=300&#10;simpoint_start_insts=&#10;socket_id=0&#10;switched_out=false&#10;syscallRetryLatency=10000&#10;system=system&#10;tracer=system.cpu.tracer&#10;wait_for_remote_gdb=false&#10;workload=system.cpu.workload">
<path fill="#bbc6d9" stroke="#000000" d="M36,-24C36,-24 520,-24 520,-24 526,-24 532,-30 532,-36 532,-36 532,-334 532,-334 532,-340 526,-346 520,-346 520,-346 36,-346 36,-346 30,-346 24,-340 24,-334 24,-334 24,-36 24,-36 24,-30 30,-24 36,-24"/>
<text text-anchor="middle" x="278" y="-330.8" font-family="Arial" font-size="14.00" fill="#000000">cpu </text>
<text text-anchor="middle" x="278" y="-315.8" font-family="Arial" font-size="14.00" fill="#000000">: TimingSimpleCPU</text>
</a>
</g>
</g>
<g id="clust5" class="cluster">
<title>cluster_system_cpu_dtb</title>
<g id="a_clust5"><a xlink:title="eventq_index=0&#10;is_stage2=false&#10;size=64&#10;sys=system&#10;walker=system.cpu.dtb.walker">
<path fill="#bab6ae" stroke="#000000" d="M396,-155C396,-155 512,-155 512,-155 518,-155 524,-161 524,-167 524,-167 524,-288 524,-288 524,-294 518,-300 512,-300 512,-300 396,-300 396,-300 390,-300 384,-294 384,-288 384,-288 384,-167 384,-167 384,-161 390,-155 396,-155"/>
<text text-anchor="middle" x="454" y="-284.8" font-family="Arial" font-size="14.00" fill="#000000">dtb </text>
<text text-anchor="middle" x="454" y="-269.8" font-family="Arial" font-size="14.00" fill="#000000">: ArmDTB</text>
</a>
</g>
</g>
<g id="clust10" class="cluster">
<title>cluster_system_cpu_dtb_walker</title>
<g id="a_clust10"><a xlink:title="clk_domain=system.cpu_clk_domain&#10;eventq_index=0&#10;is_stage2=false&#10;&#10;um_squash_per_cycle=2&#10;power_model=&#10;power_state=system.cpu.dtb.walker.power_state&#10;sys=system">
<path fill="#9f9c95" stroke="#000000" d="M404,-163C404,-163 504,-163 504,-163 510,-163 516,-169 516,-175 516,-175 516,-242 516,-242 516,-248 510,-254 504,-254 504,-254 404,-254 404,-254 398,-254 392,-248 392,-242 392,-242 392,-175 392,-175 392,-169 398,-163 404,-163"/>
<text text-anchor="middle" x="454" y="-238.8" font-family="Arial" font-size="14.00" fill="#000000">walker </text>
<text text-anchor="middle" x="454" y="-223.8" font-family="Arial" font-size="14.00" fill="#000000">: ArmTableWalker</text>
</a>
</g>
</g>
<g id="clust12" class="cluster">
<title>cluster_system_cpu_itb</title>
<g id="a_clust12"><a xlink:title="eventq_index=0&#10;is_stage2=false&#10;size=64&#10;sys=system&#10;walker=system.cpu.itb.walker">
<path fill="#bab6ae" stroke="#000000" d="M248,-155C248,-155 364,-155 364,-155 370,-155 376,-161 376,-167 376,-167 376,-288 376,-288 376,-294 370,-300 364,-300 364,-300 248,-300 248,-300 242,-300 236,-294 236,-288 236,-288 236,-167 236,-167 236,-161 242,-155 248,-155"/>
<text text-anchor="middle" x="306" y="-284.8" font-family="Arial" font-size="14.00" fill="#000000">itb </text>
<text text-anchor="middle" x="306" y="-269.8" font-family="Arial" font-size="14.00" fill="#000000">: ArmITB</text>
</a>
</g>
</g>
<g id="clust17" class="cluster">
<title>cluster_system_cpu_itb_walker</title>
<g id="a_clust17"><a xlink:title="clk_domain=system.cpu_clk_domain&#10;eventq_index=0&#10;is_stage2=false&#10;&#10;um_squash_per_cycle=2&#10;power_model=&#10;power_state=system.cpu.itb.walker.power_state&#10;sys=system">
<path fill="#9f9c95" stroke="#000000" d="M256,-163C256,-163 356,-163 356,-163 362,-163 368,-169 368,-175 368,-175 368,-242 368,-242 368,-248 362,-254 356,-254 356,-254 256,-254 256,-254 250,-254 244,-248 244,-242 244,-242 244,-175 244,-175 244,-169 250,-163 256,-163"/>
<text text-anchor="middle" x="306" y="-238.8" font-family="Arial" font-size="14.00" fill="#000000">walker </text>
<text text-anchor="middle" x="306" y="-223.8" font-family="Arial" font-size="14.00" fill="#000000">: ArmTableWalker</text>
</a>
</g>
</g>
<g id="clust23" class="cluster">
<title>cluster_system_cpu_icache</title>
<g id="a_clust23"><a xlink:title="addr_ranges=0:18446744073709551615&#10;assoc=2&#10;clk_domain=system.cpu_clk_domain&#10;clusivity=mostly_incl&#10;compressor=Null&#10;data_latency=2&#10;demand_mshr_reserve=1&#10;eventq_index=0&#10;is_read_only=true&#10;max_miss_count=0&#10;mshrs=4&#10;power_model=&#10;power_state=system.cpu.icache.power_state&#10;prefetch_on_access=false&#10;prefetcher=Null&#10;&#13;eplacement_policy=system.cpu.icache.replacement_policy&#10;&#13;esponse_latency=2&#10;sequential_access=false&#10;size=32768&#10;system=system&#10;tag_latency=2&#10;tags=system.cpu.icache.tags&#10;tgts_per_mshr=20&#10;warmup_percentage=0&#10;write_allocator=Null&#10;write_buffers=8&#10;writeback_clean=true">
<path fill="#bab6ae" stroke="#000000" d="M100,-32C100,-32 262,-32 262,-32 268,-32 274,-38 274,-44 274,-44 274,-111 274,-111 274,-117 268,-123 262,-123 262,-123 100,-123 100,-123 94,-123 88,-117 88,-111 88,-111 88,-44 88,-44 88,-38 94,-32 100,-32"/>
<text text-anchor="middle" x="181" y="-107.8" font-family="Arial" font-size="14.00" fill="#000000">icache </text>
<text text-anchor="middle" x="181" y="-92.8" font-family="Arial" font-size="14.00" fill="#000000">: L1_ICache</text>
</a>
</g>
</g>
<g id="clust29" class="cluster">
<title>cluster_system_cpu_dcache</title>
<g id="a_clust29"><a xlink:title="addr_ranges=0:18446744073709551615&#10;assoc=2&#10;clk_domain=system.cpu_clk_domain&#10;clusivity=mostly_incl&#10;compressor=Null&#10;data_latency=2&#10;demand_mshr_reserve=1&#10;eventq_index=0&#10;is_read_only=false&#10;max_miss_count=0&#10;mshrs=4&#10;power_model=&#10;power_state=system.cpu.dcache.power_state&#10;prefetch_on_access=false&#10;prefetcher=Null&#10;&#13;eplacement_policy=system.cpu.dcache.replacement_policy&#10;&#13;esponse_latency=2&#10;sequential_access=false&#10;size=65536&#10;system=system&#10;tag_latency=2&#10;tags=system.cpu.dcache.tags&#10;tgts_per_mshr=20&#10;warmup_percentage=0&#10;write_allocator=Null&#10;write_buffers=8&#10;writeback_clean=false">
<path fill="#bab6ae" stroke="#000000" d="M322,-32C322,-32 484,-32 484,-32 490,-32 496,-38 496,-44 496,-44 496,-111 496,-111 496,-117 490,-123 484,-123 484,-123 322,-123 322,-123 316,-123 310,-117 310,-111 310,-111 310,-44 310,-44 310,-38 316,-32 322,-32"/>
<text text-anchor="middle" x="403" y="-107.8" font-family="Arial" font-size="14.00" fill="#000000">dcache </text>
<text text-anchor="middle" x="403" y="-92.8" font-family="Arial" font-size="14.00" fill="#000000">: L1_DCache</text>
</a>
</g>
</g>
<g id="clust40" class="cluster">
<title>cluster_system_membus</title>
<g id="a_clust40"><a xlink:title="clk_domain=system.clk_domain&#10;eventq_index=0&#10;forward_latency=4&#10;frontend_latency=3&#10;header_latency=1&#10;max_outstanding_snoops=512&#10;max_routing_table_size=512&#10;point_of_coherency=true&#10;point_of_unification=true&#10;power_model=&#10;power_state=system.membus.power_state&#10;&#13;esponse_latency=2&#10;snoop_filter=system.membus.snoop_filter&#10;snoop_response_latency=4&#10;system=system&#10;use_default_range=false&#10;width=16">
<path fill="#6f798c" stroke="#000000" d="M398,-354C398,-354 634,-354 634,-354 640,-354 646,-360 646,-366 646,-366 646,-433 646,-433 646,-439 640,-445 634,-445 634,-445 398,-445 398,-445 392,-445 386,-439 386,-433 386,-433 386,-366 386,-366 386,-360 392,-354 398,-354"/>
<text text-anchor="middle" x="516" y="-429.8" font-family="Arial" font-size="14.00" fill="#000000">membus </text>
<text text-anchor="middle" x="516" y="-414.8" font-family="Arial" font-size="14.00" fill="#000000">: SystemXBar</text>
</a>
</g>
</g>
<g id="clust43" class="cluster">
<title>cluster_system_mem_ctrls</title>
<g id="a_clust43"><a xlink:title="clk_domain=system.clk_domain&#10;command_window=10000&#10;dram=system.mem_ctrls.dram&#10;eventq_index=0&#10;mem_sched_policy=frfcfs&#10;min_writes_per_switch=16&#10;&#10;vm=Null&#10;power_model=&#10;power_state=system.mem_ctrls.power_state&#10;qos_policy=Null&#10;qos_priorities=1&#10;qos_priority_escalation=false&#10;qos_q_policy=fifo&#10;qos_requestors= &#160;&#160;&#160;&#160;&#160;&#160;&#160;&#160;&#160;&#160;&#160;&#160;&#160;&#160;&#10;qos_syncro_scheduler=false&#10;qos_turnaround_policy=Null&#10;static_backend_latency=10000&#10;static_frontend_latency=10000&#10;system=system&#10;write_high_thresh_perc=85&#10;write_low_thresh_perc=50">
<path fill="#bab6ae" stroke="#000000" d="M574,-163C574,-163 634,-163 634,-163 640,-163 646,-169 646,-175 646,-175 646,-242 646,-242 646,-248 640,-254 634,-254 634,-254 574,-254 574,-254 568,-254 562,-248 562,-242 562,-242 562,-175 562,-175 562,-169 568,-163 574,-163"/>
<text text-anchor="middle" x="604" y="-238.8" font-family="Arial" font-size="14.00" fill="#000000">mem_ctrls </text>
<text text-anchor="middle" x="604" y="-223.8" font-family="Arial" font-size="14.00" fill="#000000">: MemCtrl</text>
</a>
</g>
</g>
<!-- system_system_port -->
<g id="node1" class="node">
<title>system_system_port</title>
<path fill="#b6b8bc" stroke="#000000" d="M414.5,-493.5C414.5,-493.5 481.5,-493.5 481.5,-493.5 487.5,-493.5 493.5,-499.5 493.5,-505.5 493.5,-505.5 493.5,-517.5 493.5,-517.5 493.5,-523.5 487.5,-529.5 481.5,-529.5 481.5,-529.5 414.5,-529.5 414.5,-529.5 408.5,-529.5 402.5,-523.5 402.5,-517.5 402.5,-517.5 402.5,-505.5 402.5,-505.5 402.5,-499.5 408.5,-493.5 414.5,-493.5"/>
<text text-anchor="middle" x="448" y="-507.8" font-family="Arial" font-size="14.00" fill="#000000">system_port</text>
</g>
<!-- system_membus_cpu_side_ports -->
<g id="node10" class="node">
<title>system_membus_cpu_side_ports</title>
<path fill="#586070" stroke="#000000" d="M406,-362.5C406,-362.5 490,-362.5 490,-362.5 496,-362.5 502,-368.5 502,-374.5 502,-374.5 502,-386.5 502,-386.5 502,-392.5 496,-398.5 490,-398.5 490,-398.5 406,-398.5 406,-398.5 400,-398.5 394,-392.5 394,-386.5 394,-386.5 394,-374.5 394,-374.5 394,-368.5 400,-362.5 406,-362.5"/>
<text text-anchor="middle" x="448" y="-376.8" font-family="Arial" font-size="14.00" fill="#000000">cpu_side_ports</text>
</g>
<!-- system_system_port&#45;&gt;system_membus_cpu_side_ports -->
<g id="edge1" class="edge">
<title>system_system_port&#45;&gt;system_membus_cpu_side_ports</title>
<path fill="none" stroke="black" d="M448,-493.37C448,-471.78 448,-434.41 448,-408.85"/>
<polygon fill="black" stroke="black" points="451.5,-408.7 448,-398.7 444.5,-408.7 451.5,-408.7"/>
</g>
<!-- system_cpu_icache_port -->
<g id="node2" class="node">
<title>system_cpu_icache_port</title>
<path fill="#959ead" stroke="#000000" d="M44,-171.5C44,-171.5 106,-171.5 106,-171.5 112,-171.5 118,-177.5 118,-183.5 118,-183.5 118,-195.5 118,-195.5 118,-201.5 112,-207.5 106,-207.5 106,-207.5 44,-207.5 44,-207.5 38,-207.5 32,-201.5 32,-195.5 32,-195.5 32,-183.5 32,-183.5 32,-177.5 38,-171.5 44,-171.5"/>
<text text-anchor="middle" x="75" y="-185.8" font-family="Arial" font-size="14.00" fill="#000000">icache_port</text>
</g>
<!-- system_cpu_icache_cpu_side -->
<g id="node6" class="node">
<title>system_cpu_icache_cpu_side</title>
<path fill="#94918b" stroke="#000000" d="M108.5,-40.5C108.5,-40.5 155.5,-40.5 155.5,-40.5 161.5,-40.5 167.5,-46.5 167.5,-52.5 167.5,-52.5 167.5,-64.5 167.5,-64.5 167.5,-70.5 161.5,-76.5 155.5,-76.5 155.5,-76.5 108.5,-76.5 108.5,-76.5 102.5,-76.5 96.5,-70.5 96.5,-64.5 96.5,-64.5 96.5,-52.5 96.5,-52.5 96.5,-46.5 102.5,-40.5 108.5,-40.5"/>
<text text-anchor="middle" x="132" y="-54.8" font-family="Arial" font-size="14.00" fill="#000000">cpu_side</text>
</g>
<!-- system_cpu_icache_port&#45;&gt;system_cpu_icache_cpu_side -->
<g id="edge2" class="edge">
<title>system_cpu_icache_port&#45;&gt;system_cpu_icache_cpu_side</title>
<path fill="none" stroke="black" d="M82.57,-171.37C92.19,-149.59 108.92,-111.74 120.22,-86.17"/>
<polygon fill="black" stroke="black" points="123.56,-87.26 124.4,-76.7 117.16,-84.43 123.56,-87.26"/>
</g>
<!-- system_cpu_dcache_port -->
<g id="node3" class="node">
<title>system_cpu_dcache_port</title>
<path fill="#959ead" stroke="#000000" d="M148.5,-171.5C148.5,-171.5 215.5,-171.5 215.5,-171.5 221.5,-171.5 227.5,-177.5 227.5,-183.5 227.5,-183.5 227.5,-195.5 227.5,-195.5 227.5,-201.5 221.5,-207.5 215.5,-207.5 215.5,-207.5 148.5,-207.5 148.5,-207.5 142.5,-207.5 136.5,-201.5 136.5,-195.5 136.5,-195.5 136.5,-183.5 136.5,-183.5 136.5,-177.5 142.5,-171.5 148.5,-171.5"/>
<text text-anchor="middle" x="182" y="-185.8" font-family="Arial" font-size="14.00" fill="#000000">dcache_port</text>
</g>
<!-- system_cpu_dcache_cpu_side -->
<g id="node8" class="node">
<title>system_cpu_dcache_cpu_side</title>
<path fill="#94918b" stroke="#000000" d="M330.5,-40.5C330.5,-40.5 377.5,-40.5 377.5,-40.5 383.5,-40.5 389.5,-46.5 389.5,-52.5 389.5,-52.5 389.5,-64.5 389.5,-64.5 389.5,-70.5 383.5,-76.5 377.5,-76.5 377.5,-76.5 330.5,-76.5 330.5,-76.5 324.5,-76.5 318.5,-70.5 318.5,-64.5 318.5,-64.5 318.5,-52.5 318.5,-52.5 318.5,-46.5 324.5,-40.5 330.5,-40.5"/>
<text text-anchor="middle" x="354" y="-54.8" font-family="Arial" font-size="14.00" fill="#000000">cpu_side</text>
</g>
<!-- system_cpu_dcache_port&#45;&gt;system_cpu_dcache_cpu_side -->
<g id="edge3" class="edge">
<title>system_cpu_dcache_port&#45;&gt;system_cpu_dcache_cpu_side</title>
<path fill="none" stroke="black" d="M208.56,-171.38C228.11,-158.54 255.15,-140.28 278,-123 294.51,-110.52 312.3,-95.73 326.51,-83.57"/>
<polygon fill="black" stroke="black" points="329.14,-85.93 334.43,-76.75 324.57,-80.63 329.14,-85.93"/>
</g>
<!-- system_cpu_dtb_walker_port -->
<g id="node4" class="node">
<title>system_cpu_dtb_walker_port</title>
<path fill="#7f7c77" stroke="#000000" d="M433,-171.5C433,-171.5 463,-171.5 463,-171.5 469,-171.5 475,-177.5 475,-183.5 475,-183.5 475,-195.5 475,-195.5 475,-201.5 469,-207.5 463,-207.5 463,-207.5 433,-207.5 433,-207.5 427,-207.5 421,-201.5 421,-195.5 421,-195.5 421,-183.5 421,-183.5 421,-177.5 427,-171.5 433,-171.5"/>
<text text-anchor="middle" x="448" y="-185.8" font-family="Arial" font-size="14.00" fill="#000000">port</text>
</g>
<!-- system_cpu_itb_walker_port -->
<g id="node5" class="node">
<title>system_cpu_itb_walker_port</title>
<path fill="#7f7c77" stroke="#000000" d="M318,-171.5C318,-171.5 348,-171.5 348,-171.5 354,-171.5 360,-177.5 360,-183.5 360,-183.5 360,-195.5 360,-195.5 360,-201.5 354,-207.5 348,-207.5 348,-207.5 318,-207.5 318,-207.5 312,-207.5 306,-201.5 306,-195.5 306,-195.5 306,-183.5 306,-183.5 306,-177.5 312,-171.5 318,-171.5"/>
<text text-anchor="middle" x="333" y="-185.8" font-family="Arial" font-size="14.00" fill="#000000">port</text>
</g>
<!-- system_cpu_icache_mem_side -->
<g id="node7" class="node">
<title>system_cpu_icache_mem_side</title>
<path fill="#94918b" stroke="#000000" d="M198,-40.5C198,-40.5 254,-40.5 254,-40.5 260,-40.5 266,-46.5 266,-52.5 266,-52.5 266,-64.5 266,-64.5 266,-70.5 260,-76.5 254,-76.5 254,-76.5 198,-76.5 198,-76.5 192,-76.5 186,-70.5 186,-64.5 186,-64.5 186,-52.5 186,-52.5 186,-46.5 192,-40.5 198,-40.5"/>
<text text-anchor="middle" x="226" y="-54.8" font-family="Arial" font-size="14.00" fill="#000000">mem_side</text>
</g>
<!-- system_cpu_dcache_mem_side -->
<g id="node9" class="node">
<title>system_cpu_dcache_mem_side</title>
<path fill="#94918b" stroke="#000000" d="M420,-40.5C420,-40.5 476,-40.5 476,-40.5 482,-40.5 488,-46.5 488,-52.5 488,-52.5 488,-64.5 488,-64.5 488,-70.5 482,-76.5 476,-76.5 476,-76.5 420,-76.5 420,-76.5 414,-76.5 408,-70.5 408,-64.5 408,-64.5 408,-52.5 408,-52.5 408,-46.5 414,-40.5 420,-40.5"/>
<text text-anchor="middle" x="448" y="-54.8" font-family="Arial" font-size="14.00" fill="#000000">mem_side</text>
</g>
<!-- system_membus_cpu_side_ports&#45;&gt;system_cpu_dtb_walker_port -->
<g id="edge7" class="edge">
<title>system_membus_cpu_side_ports&#45;&gt;system_cpu_dtb_walker_port</title>
<path fill="none" stroke="black" d="M448,-352.16C448,-312.61 448,-240.59 448,-207.7"/>
<polygon fill="black" stroke="black" points="444.5,-352.39 448,-362.39 451.5,-352.39 444.5,-352.39"/>
</g>
<!-- system_membus_cpu_side_ports&#45;&gt;system_cpu_itb_walker_port -->
<g id="edge6" class="edge">
<title>system_membus_cpu_side_ports&#45;&gt;system_cpu_itb_walker_port</title>
<path fill="none" stroke="black" d="M399.46,-356.72C395.25,-353.51 391.33,-349.95 388,-346 352.92,-304.41 339.61,-238.9 335.09,-207.89"/>
<polygon fill="black" stroke="black" points="397.61,-359.7 407.84,-362.44 401.56,-353.92 397.61,-359.7"/>
</g>
<!-- system_membus_cpu_side_ports&#45;&gt;system_cpu_icache_mem_side -->
<g id="edge4" class="edge">
<title>system_membus_cpu_side_ports&#45;&gt;system_cpu_icache_mem_side</title>
<path fill="none" stroke="black" d="M504.03,-357.89C511.56,-353.94 517.55,-349.84 520,-346 531.41,-328.11 533.85,-171.08 520,-155 488.61,-118.57 350.11,-142.15 306,-123 280.95,-112.12 257.09,-91.35 242.05,-76.53"/>
<polygon fill="black" stroke="black" points="502.07,-354.95 494.59,-362.45 505.12,-361.25 502.07,-354.95"/>
</g>
<!-- system_membus_cpu_side_ports&#45;&gt;system_cpu_dcache_mem_side -->
<g id="edge5" class="edge">
<title>system_membus_cpu_side_ports&#45;&gt;system_cpu_dcache_mem_side</title>
<path fill="none" stroke="black" d="M497.99,-358.76C502.37,-357.1 506.75,-355.49 511,-354 522.81,-349.87 530.51,-356.03 538,-346 563.39,-311.99 553.66,-194.45 538,-155 524.89,-121.97 494.34,-93.73 472.47,-76.71"/>
<polygon fill="black" stroke="black" points="496.51,-355.58 488.45,-362.46 499.04,-362.1 496.51,-355.58"/>
</g>
<!-- system_membus_mem_side_ports -->
<g id="node11" class="node">
<title>system_membus_mem_side_ports</title>
<path fill="#586070" stroke="#000000" d="M532,-362.5C532,-362.5 626,-362.5 626,-362.5 632,-362.5 638,-368.5 638,-374.5 638,-374.5 638,-386.5 638,-386.5 638,-392.5 632,-398.5 626,-398.5 626,-398.5 532,-398.5 532,-398.5 526,-398.5 520,-392.5 520,-386.5 520,-386.5 520,-374.5 520,-374.5 520,-368.5 526,-362.5 532,-362.5"/>
<text text-anchor="middle" x="579" y="-376.8" font-family="Arial" font-size="14.00" fill="#000000">mem_side_ports</text>
</g>
<!-- system_mem_ctrls_port -->
<g id="node12" class="node">
<title>system_mem_ctrls_port</title>
<path fill="#94918b" stroke="#000000" d="M584,-171.5C584,-171.5 614,-171.5 614,-171.5 620,-171.5 626,-177.5 626,-183.5 626,-183.5 626,-195.5 626,-195.5 626,-201.5 620,-207.5 614,-207.5 614,-207.5 584,-207.5 584,-207.5 578,-207.5 572,-201.5 572,-195.5 572,-195.5 572,-183.5 572,-183.5 572,-177.5 578,-171.5 584,-171.5"/>
<text text-anchor="middle" x="599" y="-185.8" font-family="Arial" font-size="14.00" fill="#000000">port</text>
</g>
<!-- system_membus_mem_side_ports&#45;&gt;system_mem_ctrls_port -->
<g id="edge8" class="edge">
<title>system_membus_mem_side_ports&#45;&gt;system_mem_ctrls_port</title>
<path fill="none" stroke="black" d="M580.81,-362.39C584.29,-329.52 591.94,-257.26 596.12,-217.7"/>
<polygon fill="black" stroke="black" points="599.61,-218.02 597.18,-207.7 592.65,-217.28 599.61,-218.02"/>
</g>
</g>
</svg>
